<?xml version="1.0" standalone="no"?>
<!DOCTYPE svg PUBLIC "-//W3C//DTD SVG 20010904//EN"
 "http://www.w3.org/TR/2001/REC-SVG-20010904/DTD/svg10.dtd">
<svg version="1.0" xmlns="http://www.w3.org/2000/svg"
 width="700.000000pt" height="700.000000pt" viewBox="0 0 700.000000 700.000000"
 preserveAspectRatio="xMidYMid meet">
<metadata>
Created by potrace 1.11, written by Peter Selinger 2001-2013
</metadata>
<g transform="translate(0.000000,700.000000) scale(0.100000,-0.100000)"
fill="#000000" stroke="none">
<path d="M4017 6594 c-1 -1 -36 -4 -77 -8 -398 -32 -821 -219 -1160 -511 -68
-59 -252 -249 -307 -316 -30 -38 -58 -69 -60 -69 -8 0 -76 62 -224 205 -145
139 -199 175 -269 175 -32 0 -48 -7 -78 -34 -37 -34 -37 -35 -37 -113 1 -92
25 -175 91 -308 38 -77 117 -209 134 -225 3 -3 18 -23 35 -45 16 -22 31 -42
34 -45 33 -29 31 -35 -47 -191 -83 -162 -179 -397 -232 -564 -35 -111 -88
-310 -96 -365 -3 -19 -8 -38 -10 -41 -3 -5 -21 -105 -29 -164 -5 -36 -16 -110
-20 -135 -28 -183 -28 -617 0 -746 82 -384 229 -615 506 -800 158 -105 314
-168 539 -217 105 -23 144 -30 250 -42 80 -10 380 -13 447 -5 140 17 278 63
391 131 47 29 62 34 62 22 0 -22 -59 -226 -68 -235 -6 -6 -152 -42 -252 -62
-123 -24 -488 -98 -500 -101 -8 -2 -91 -20 -185 -40 -93 -20 -206 -45 -250
-57 -44 -11 -87 -21 -95 -23 -128 -27 -393 -123 -499 -181 -229 -126 -308
-262 -278 -480 16 -113 57 -220 118 -310 147 -216 486 -388 829 -422 128 -12
367 -6 480 13 14 2 41 6 60 9 60 10 167 38 255 68 110 37 279 126 373 197 173
131 287 267 390 467 23 44 78 190 122 325 44 134 87 253 95 265 8 12 31 28 52
35 102 33 358 171 518 280 544 370 883 865 869 1270 -5 122 -30 179 -82 179
-49 0 -114 -60 -328 -305 -188 -216 -395 -423 -573 -575 -78 -66 -215 -169
-219 -165 -2 2 7 41 21 87 29 97 102 369 111 413 4 17 8 39 10 50 3 11 9 40
15 65 5 25 12 61 16 80 3 19 8 46 10 60 12 57 14 72 21 137 12 118 11 176 -1
223 -52 195 -209 425 -342 502 -134 77 -270 24 -356 -139 -33 -63 -88 -219
-101 -288 -13 -65 -17 -83 -32 -170 -8 -49 -17 -103 -19 -120 -3 -16 -13 -95
-24 -175 l-19 -145 -48 -42 c-64 -57 -212 -130 -299 -148 -69 -14 -277 -14
-370 0 -446 70 -675 377 -678 910 0 128 7 271 18 335 2 14 9 61 15 105 7 44
14 89 17 100 5 23 12 62 18 90 21 121 151 543 174 567 3 4 58 -10 121 -32 115
-40 350 -104 425 -116 22 -3 42 -7 45 -9 3 -2 37 -6 75 -10 39 -4 74 -10 79
-12 19 -12 377 -10 476 2 284 36 486 106 675 234 377 254 530 656 430 1132
-20 99 -112 256 -191 329 -173 158 -440 239 -811 244 -84 1 -154 1 -156 0z
m228 -625 c172 -43 276 -157 278 -301 1 -101 -29 -205 -83 -283 -89 -129 -208
-206 -384 -250 -121 -30 -416 -22 -611 16 -27 5 -61 11 -75 14 -97 18 -285 77
-304 96 -19 18 162 265 285 388 125 125 293 237 431 287 131 47 347 63 463 33z
m-675 -4616 c0 -3 -17 -36 -37 -72 -123 -221 -272 -387 -423 -473 -137 -78
-325 -91 -530 -37 -151 40 -236 119 -225 207 12 95 87 124 615 241 187 42 426
98 515 121 81 22 85 22 85 13z"/>
</g>
</svg>
