<?xml version="1.0" encoding="utf-8"?>
<svg x="0pt" y="0pt" width="28pt" height="49pt" viewBox="0 0 28 49" 
  xmlns="http://www.w3.org/2000/svg" 
  xmlns:xlink="http://www.w3.org/1999/xlink">
  <g id="1">
    <title>Layer 2</title>
    <defs>
      <title>Smart Polygon</title>
      <g id="2">
        <defs>
          <path id="3" d="M14,40.7084 C14,40.7084,-0.03691,32.6042,-0.03691,32.6042 C-0.03691,32.6042,-0.0369076,16.3958,-0.0369076,16.3958 C-0.0369076,16.3958,14,8.29158,14,8.29158 C14,8.29158,28.0369,16.3958,28.0369,16.3958 C28.0369,16.3958,28.0369,32.6042,28.0369,32.6042 C28.0369,32.6042,14,40.7084,14,40.7084 z"/>
        </defs>
        <use xlink:href="#3" style="fill:none;opacity:1;stroke:#f6ad55;stroke-linecap:butt;stroke-linejoin:miter;stroke-miterlimit:10;stroke-opacity:1;stroke-width:1;"/>
      </g>
    </defs>
    <use xlink:href="#2"/>
    <defs>
      <title>Smart Polygon</title>
      <g id="4">
        <defs>
          <path id="5" d="M28,65.0362 C28,65.0362,13.9631,56.932,13.9631,56.932 C13.9631,56.932,13.9631,40.7235,13.9631,40.7235 C13.9631,40.7235,28,32.6193,28,32.6193 C28,32.6193,42.0369,40.7235,42.0369,40.7235 C42.0369,40.7235,42.0369,56.932,42.0369,56.932 C42.0369,56.932,28,65.0362,28,65.0362 z"/>
        </defs>
        <use xlink:href="#5" style="fill:none;opacity:1;stroke:#f6ad55;stroke-linecap:butt;stroke-linejoin:miter;stroke-miterlimit:10;stroke-opacity:1;stroke-width:1;"/>
      </g>
    </defs>
    <use xlink:href="#4"/>
    <defs>
      <title>Smart Polygon</title>
      <g id="6">
        <defs>
          <path id="7" d="M7.09373e-08,16.657 C7.09373e-08,16.657,-14.0369,8.55281,-14.0369,8.55281 C-14.0369,8.55281,-14.0369,-7.65562,-14.0369,-7.65562 C-14.0369,-7.65562,4.96575e-06,-15.7598,4.96575e-06,-15.7598 C4.96575e-06,-15.7598,14.0369,-7.65561,14.0369,-7.65561 C14.0369,-7.65561,14.0369,8.55281,14.0369,8.55281 C14.0369,8.55281,7.09373e-08,16.657,7.09373e-08,16.657 z"/>
        </defs>
        <use xlink:href="#7" style="fill:none;opacity:1;stroke:#f6ad55;stroke-linecap:butt;stroke-linejoin:miter;stroke-miterlimit:10;stroke-opacity:1;stroke-width:1;"/>
      </g>
    </defs>
    <use xlink:href="#6"/>
    <defs>
      <title>Path</title>
      <g id="8">
        <defs>
          <path id="9" d="M2,32.3187 C2,32.3187,1.95608,16.9743,1.95608,16.9743"/>
        </defs>
        <use xlink:href="#9" style="fill:none;opacity:1;stroke:#f6ad55;stroke-linecap:butt;stroke-linejoin:miter;stroke-miterlimit:10;stroke-opacity:1;stroke-width:1;"/>
      </g>
    </defs>
    <use xlink:href="#8"/>
    <defs>
      <title>Path</title>
      <g id="10">
        <defs>
          <path id="11" d="M16.0808,56.3639 C16.0808,56.3639,16.0369,41.0194,16.0369,41.0194"/>
        </defs>
        <use xlink:href="#11" style="fill:none;opacity:1;stroke:#f6ad55;stroke-linecap:butt;stroke-linejoin:miter;stroke-miterlimit:10;stroke-opacity:1;stroke-width:1;"/>
      </g>
    </defs>
    <use xlink:href="#10"/>
    <defs>
      <title>Path</title>
      <g id="12">
        <defs>
          <path id="13" d="M16.0808,8.03485 C16.0808,8.03485,16.0369,-7.30959,16.0369,-7.30959"/>
        </defs>
        <use xlink:href="#13" style="fill:none;opacity:1;stroke:#f6ad55;stroke-linecap:butt;stroke-linejoin:miter;stroke-miterlimit:10;stroke-opacity:1;stroke-width:1;"/>
      </g>
    </defs>
    <use xlink:href="#12"/>
  </g>
</svg>
