<?xml version="1.0" encoding="utf-8"?>
<svg x="0pt" y="0pt" width="1024pt" height="1024pt" viewBox="0 0 1024 1024" 
  xmlns="http://www.w3.org/2000/svg" 
  xmlns:xlink="http://www.w3.org/1999/xlink">
  <rect width="100%" height="100%" fill="#140A02"/>
  <g id="1">
    <defs>
      <title>Genieblog Logo</title>
      <g id="2">
        <defs>
          <path id="3" d="M648.364,440.45 C599.764,440.45,593.464,543.002,585.364,597.877 C566.464,615.868,543.064,627.563,512.464,627.563 C420.664,627.563,381.064,577.186,381.064,489.927 C381.064,437.752,393.664,373.882,417.064,315.409 C469.264,336.099,517.864,345.095,559.264,345.095 C688.864,345.095,761.764,274.028,761.764,182.271 C761.764,92.3133,700.564,59.0289,604.264,59.0289 C500.764,59.0289,415.264,113.004,353.164,192.167 C325.264,170.577,301.864,135.493,281.164,135.493 C272.164,135.493,263.164,143.589,263.164,155.284 C263.164,180.472,282.964,220.953,311.764,254.238 C264.964,336.999,239.764,434.153,239.764,524.111 C239.764,678.839,350.464,728.316,476.464,728.316 C515.164,728.316,543.964,717.521,565.564,701.328 C562.864,713.922,559.264,727.416,554.764,740.01 C411.664,773.295,252.364,786.788,252.364,862.353 C252.364,946.014,339.664,985.595,417.064,985.595 C534.964,985.595,605.164,925.323,631.264,847.06 C636.664,829.068,642.964,808.378,651.964,785.889 C781.564,733.713,862.564,632.061,862.564,560.994 C862.564,540.304,858.964,529.509,849.964,529.509 C829.264,529.509,786.964,610.471,685.264,684.236 C703.264,623.965,717.664,566.391,717.664,529.509 C717.664,507.919,684.364,440.45,648.364,440.45 z M597.964,148.087 C636.664,148.087,661.864,166.978,661.864,195.765 C661.864,239.844,624.064,275.827,566.464,275.827 C532.264,275.827,485.464,271.33,446.764,254.238 C483.664,193.066,534.064,148.087,597.964,148.087 z M416.164,916.328 C387.364,916.328,344.164,908.232,344.164,882.144 C344.164,857.855,390.964,858.755,523.264,824.571 C497.164,876.746,461.164,916.328,416.164,916.328 z"/>
        </defs>
        <use xlink:href="#3" style="fill:#fefefe;fill-opacity:1;fill-rule:nonzero;opacity:1;stroke:none;"/>
      </g>
    </defs>
    <use xlink:href="#2"/>
  </g>
</svg>
